<svg width="14" height="15" viewBox="0 0 14 15" fill="none" xmlns="http://www.w3.org/2000/svg">
<path d="M9.68983 2.73446C9.5547 2.66395 9.45296 2.54234 9.407 2.39639C9.36103 2.25044 9.3746 2.09211 9.44472 1.95622C9.51484 1.82033 9.63577 1.71802 9.7809 1.6718C9.92604 1.62557 10.0835 1.63922 10.2186 1.70973C11.6114 2.43494 12.7216 3.6095 13.3713 5.04505C14.0209 6.4806 14.1723 8.09396 13.8012 9.62638C13.4301 11.1588 12.558 12.5215 11.3247 13.4959C10.0914 14.4703 8.56841 15 7 15C5.43159 15 3.90862 14.4703 2.67533 13.4959C1.44205 12.5215 0.56991 11.1588 0.198791 9.62638C-0.172328 8.09396 -0.0209264 6.4806 0.628716 5.04505C1.27836 3.6095 2.3886 2.43494 3.78138 1.70973C3.84829 1.67482 3.92138 1.6535 3.99648 1.64699C4.07159 1.64048 4.14723 1.64891 4.21909 1.6718C4.29096 1.69469 4.35763 1.73158 4.41532 1.78039C4.473 1.82919 4.52056 1.88894 4.55528 1.95622C4.59 2.02351 4.6112 2.09701 4.61768 2.17253C4.62415 2.24806 4.61576 2.32413 4.593 2.39639C4.57024 2.46866 4.53355 2.53571 4.48502 2.59372C4.43649 2.65172 4.37708 2.69955 4.31017 2.73446C3.14548 3.34058 2.21697 4.3225 1.67359 5.52272C1.1302 6.72295 1.00342 8.07192 1.31359 9.35327C1.62376 10.6346 2.35289 11.7741 3.38404 12.5889C4.41519 13.4037 5.68859 13.8466 7 13.8466C8.31141 13.8466 9.58481 13.4037 10.616 12.5889C11.6471 11.7741 12.3762 10.6346 12.6864 9.35327C12.9966 8.07192 12.8698 6.72295 12.3264 5.52272C11.783 4.3225 10.8545 3.34058 9.68983 2.73446V2.73446ZM7.57377 5.1929C7.57377 5.34592 7.51332 5.49268 7.40572 5.60089C7.29811 5.70909 7.15217 5.76988 7 5.76988C6.84783 5.76988 6.70189 5.70909 6.59428 5.60089C6.48668 5.49268 6.42623 5.34592 6.42623 5.1929V0.576988C6.42623 0.423962 6.48668 0.277202 6.59428 0.168996C6.70189 0.0607897 6.84783 0 7 0C7.15217 0 7.29811 0.0607897 7.40572 0.168996C7.51332 0.277202 7.57377 0.423962 7.57377 0.576988V5.1929Z" fill="#F5F5F5"/>
</svg>
