<?xml version="1.0" standalone="no"?><!DOCTYPE svg PUBLIC "-//W3C//DTD SVG 1.1//EN" "http://www.w3.org/Graphics/SVG/1.1/DTD/svg11.dtd"><svg t="1699607262348" class="icon" viewBox="0 0 1024 1024" version="1.1" xmlns="http://www.w3.org/2000/svg" p-id="9920" xmlns:xlink="http://www.w3.org/1999/xlink" width="128" height="128"><path d="M458.5 780.3l35.9-215H315.1l251-322.7-35.9 215.1h179.2z" fill="#3366CC" p-id="9921"></path><path d="M933.4 379.4c-16.9-45.5-41.3-87.4-71.8-124.1-49.1-59.4-114-105.2-188.1-131.3V63.4L494.4 99.3l179.2 143.4v-41.8c48 21 90.6 52.2 124.9 90.9 31.7 35.7 56.3 77.8 71.7 124.1 11.9 35.7 18.5 73.8 18.5 113.5s-6.5 77.8-18.5 113.5l63.2 36.5c17.4-46.7 26.9-97.2 26.9-150 0.1-52.8-9.5-103.3-26.9-150zM243.4 565.3h-69.8c-1.2-11.8-1.9-23.7-1.9-35.8 0-39.7 6.5-77.8 18.5-113.5 15.5-46.3 40.1-88.4 71.7-124.1 50.6-57 119-97.9 196.6-113.6v-72.8c-104 17.5-195.3 72.1-259.8 149.9-30.4 36.7-54.8 78.6-71.8 124.1-17.4 46.7-26.9 97.2-26.9 150 0 12.1 0.6 24 1.5 35.8H64.2l55.4 92.3c2.3 7.4 4.7 14.7 7.4 21.9l4.2-2.5 40.5 67.5 71.7-179.2zM751.1 811.6c-42.9 33.7-93.7 57.8-149.2 69.1-23.2 4.7-47.1 7.2-71.7 7.2s-48.5-2.5-71.7-7.2c-77.6-15.7-146-56.6-196.6-113.6l-63.2 36.5c64.4 77.8 155.8 132.5 259.8 149.9 23.3 3.9 47.3 6.1 71.7 6.1 24.4 0 48.4-2.1 71.7-6.1 78.7-13.2 150.2-47.8 208.3-97.6l42.6 32 71.7-179.2-215.1 71.7 41.7 31.2z" fill="#CCCCCC" p-id="9922"></path></svg>